<svg xmlns="http://www.w3.org/2000/svg" width="14.557" height="17.717" viewBox="0 0 14.557 17.717"><path d="M1.815,14.763a1.793,1.793,0,0,1-.284-.026,1.627,1.627,0,0,1-1.312-1.89L.89,9.629a1.934,1.934,0,0,1,.47-.854L9.083,1.038a3.024,3.024,0,0,1,4.176,0l.644.684a2.991,2.991,0,0,1,0,4.166l-7.721,7.72a1.88,1.88,0,0,1-.855.468l-3.178.635a1.131,1.131,0,0,1-.277.05Zm9.3-13.135a1.6,1.6,0,0,0-1.094.432L2.253,9.843l-.7,3.56,3.582-.6s7.812-7.843,7.845-7.882a1.549,1.549,0,0,0-.106-2.19l-.668-.668A1.6,1.6,0,0,0,11.113,1.627Z" transform="translate(-0.192 -0.203)" fill="#1087ff"/><path d="M13.919,20.047H.9a.672.672,0,0,1-.673-.673v-.1A.62.62,0,0,1,.841,18.7l13.13,0,.1,0a.676.676,0,0,1-.073,1.347Z" transform="translate(-0.196 -2.334)" fill="#1087ff"/><path d="M12.413,7.952a.077.077,0,0,1-.065-.022L8.15,3.584c-.034-.042,0-.311.329-.628a.938.938,0,0,1,.57-.312.124.124,0,0,1,.093.029l4.173,4.322c.032.041-.008.307-.334.623A1,1,0,0,1,12.413,7.952Z" transform="translate(-1.108 -0.484)" fill="#1087ff"/></svg>