<svg xmlns="http://www.w3.org/2000/svg" width="22.484" height="22.484" viewBox="0 0 22.484 22.484"><path d="M7.9,13.7H2.635A2.638,2.638,0,0,0,0,16.336v3.513a2.638,2.638,0,0,0,2.635,2.635H7.9a2.638,2.638,0,0,0,2.635-2.635V16.336A2.638,2.638,0,0,0,7.9,13.7Zm.878,6.148a.879.879,0,0,1-.878.878H2.635a.879.879,0,0,1-.878-.878V16.336a.879.879,0,0,1,.878-.878H7.9a.879.879,0,0,1,.878.878ZM19.849,0H14.58a2.638,2.638,0,0,0-2.635,2.635V6.148A2.638,2.638,0,0,0,14.58,8.783h5.27a2.638,2.638,0,0,0,2.635-2.635V2.635A2.638,2.638,0,0,0,19.849,0Zm.878,6.148a.879.879,0,0,1-.878.878H14.58a.879.879,0,0,1-.878-.878V2.635a.879.879,0,0,1,.878-.878h5.27a.879.879,0,0,1,.878.878Zm-.878,4.04H14.58a2.638,2.638,0,0,0-2.635,2.635v7.026a2.638,2.638,0,0,0,2.635,2.635h5.27a2.638,2.638,0,0,0,2.635-2.635V12.823A2.638,2.638,0,0,0,19.849,10.188Zm.878,9.661a.879.879,0,0,1-.878.878H14.58a.879.879,0,0,1-.878-.878V12.823a.879.879,0,0,1,.878-.878h5.27a.879.879,0,0,1,.878.878ZM7.9,0H2.635A2.638,2.638,0,0,0,0,2.635V9.661A2.638,2.638,0,0,0,2.635,12.3H7.9a2.638,2.638,0,0,0,2.635-2.635V2.635A2.638,2.638,0,0,0,7.9,0Zm.878,9.661a.879.879,0,0,1-.878.878H2.635a.879.879,0,0,1-.878-.878V2.635a.879.879,0,0,1,.878-.878H7.9a.879.879,0,0,1,.878.878Z" fill="#fff"/></svg>